<?xml version="1.0" encoding="UTF-8"?>
<svg id="Capa_1" data-name="Capa 1" xmlns="http://www.w3.org/2000/svg" width="728" height="91.94" xmlns:xlink="http://www.w3.org/1999/xlink" viewBox="0 0 728 91.94">
  <defs>
    <linearGradient id="Degradado_sin_nombre" data-name="Degradado sin nombre" x1="0" y1="943.145" x2="728" y2="943.145" gradientTransform="translate(0 -894)" gradientUnits="userSpaceOnUse">
      <stop offset="0" stop-color="#a50000"/>
      <stop offset=".5" stop-color="#ba0000"/>
      <stop offset="1" stop-color="#a50000"/>
    </linearGradient>
  </defs>
  <g id="Capa_2" data-name="Capa 2">
    <polygon points="208.21 0 191.07 90 205.21 90 221.5 0 208.21 0" fill="#9b4545"/>
    <polyline points="186.29 90 202.57 0 178.84 0 161.7 90" fill="#ff4d4d"/>
    <polyline points="537.61 90 553.89 0 530.16 0 513.02 90" fill="#ff4d4d"/>
    <polygon points="558.5 0 541.36 90 555.5 90 571.79 0 558.5 0" fill="#9b4545"/>
  </g>
  <g id="Capa_7" data-name="Capa 7">
    <g id="Capa_5" data-name="Capa 5">
      <polygon points="298.14 35.94 289.04 13.79 255 13.79 262.77 35.94 298.14 35.94" fill="#8e0000"/>
    </g>
    <polygon points="421 58.48 430.1 80.62 464.14 80.62 456.37 58.48 421 58.48" fill="#8e0000"/>
    <g id="Capa_1-2" data-name="Capa 1-2">
      <rect y="27.29" width="728" height="43.71" fill="#8e0000"/>
      <rect y="27.29" width="728" height="43.71" fill="url(#Degradado_sin_nombre)"/>
    </g>
    <g id="Capa_6" data-name="Capa 6">
      <polygon points="245.79 91.94 254.97 13.79 289.36 13.79 281.51 91.94 245.79 91.94" fill="#db0000"/>
    </g>
  </g>
  <g id="Capa_8" data-name="Capa 8">
    <polygon points="473.36 2.48 464.17 80.62 429.79 80.62 437.63 2.48 473.36 2.48" fill="#db0000"/>
  </g>
  <g>
    <polygon points="351.54 10.9482 351.54 13.4012 353.7 13.4012 353.7 10.9482 354.96 10.9482 354.96 17.4099 353.7 17.4099 353.7 14.5979 351.54 14.5979 351.54 17.4099 350.28 17.4099 350.28 10.9482 351.54 10.9482" fill="#fe0202"/>
    <path d="M380.82,10.8285v6.5814h-1.2l-.0006-.4786c-1.2932,1.2386-3.2858.4574-3.6798-1.2062-.5535-2.337,1.6685-4.2622,3.6804-2.623v-2.2736h1.2ZM378.1041,13.5952c-1.5213.2587-1.3317,3.0762.4607,2.8522,1.6195-.2025,1.435-3.1745-.4607-2.8522Z" fill="#fe0202"/>
    <path d="M359.88,17.4099l-.0003-.4185c-.0428-.0491-.5568.3442-.6595.3888-1.2786.5551-2.6761-.3232-3.017-1.5988-.6289-2.3531,1.649-4.3263,3.6762-2.6792l.0006-.4786h1.2v4.7865h-1.2ZM358.3641,13.5952c-1.5447.2626-1.3451,3.0921.4609,2.852,1.6175-.2151,1.4095-3.17-.4609-2.852Z" fill="#fe0202"/>
    <path d="M370.8,17.4099l-.0006-.4786c-1.2971,1.2409-3.2853.4595-3.6798-1.2062-.5532-2.3358,1.6673-4.2628,3.6798-2.623l.0006-.4786h1.2v4.7865h-1.2ZM369.2841,13.5952c-1.5213.2587-1.3317,3.0762.4607,2.8522,1.6195-.2025,1.435-3.1745-.4607-2.8522Z" fill="#fe0202"/>
    <path d="M348.8208,14.1226c0,3.5807-2.9109,6.4834-6.5017,6.4834s-6.5017-2.9027-6.5017-6.4834,2.9109-6.4834,6.5017-6.4834,6.5017,2.9027,6.5017,6.4834ZM348.5419,14.1237c0-3.4274-2.7863-6.2059-6.2234-6.2059s-6.2234,2.7785-6.2234,6.2059,2.7863,6.2059,6.2234,6.2059,6.2234-2.7785,6.2234-6.2059Z" fill="#fe0202"/>
    <polygon points="362.91 12.6234 364.1694 15.3761 365.37 12.6234 366.54 12.6234 364.5518 17.4018 363.8077 17.4143 361.74 12.6234 362.91 12.6234" fill="#fe0202"/>
    <path d="M373.98,12.6234l.03.4793c.297-.5476.8938-.7557,1.4737-.5052l-.3089.9776c-.1009.0884-.5045-.2444-.8023.1876-.4985.7232-.081,2.7581-.2126,3.6472h-1.26v-4.7865h1.08Z" fill="#fe0202"/>
    <path d="M359.3191,11.5255c-.9134.8646-2.2887-.4411-1.4186-1.3247.8951-.9089,2.3353.4569,1.4186,1.3247ZM358.8447,10.4857c-.5247-.4954-.9234.9157-.1479.8103.3087-.0419.3542-.6156.1479-.8103Z" fill="#fe0202"/>
    <path d="M344.34,9.0336v4.248h-4.14v-4.0386c0-.0208-.0848-.0712-.0359-.1492,1.2937-.6067,2.8457-.5339,4.1759-.0602Z" fill="#fe0202"/>
    <path d="M344.34,19.2049c-1.3407.4967-2.8004.4876-4.14,0v-4.0087h4.05l.09.0897v3.9189Z" fill="#fe0202"/>
    <path d="M346.56,17.4698v-6.7011c1.6,1.8359,1.5943,4.8635,0,6.7011Z" fill="#fe0202"/>
    <path d="M337.92,17.4099l-.4303-.6179c-.9284-1.686-.9284-3.6596,0-5.3455l.4303-.6179v6.5814Z" fill="#fe0202"/>
  </g>
  <g>
    <path d="M363.7523,82.7398c.3406.0232.7484-.0953,1.0358.1116.4803.3458,1.7157,2.9987,1.8968,3.6579.9487,3.454-1.9701,2.2905-3.7696,1.2286-2.134-1.2593-3.9559-3.0789-5.6907-4.8192-.0504-.2713.1197-.1684.3011-.181.8823-.0612,1.1971.6028,1.8167,1.0846.8786.6831,3.8329,2.9023,4.8892,1.9904.8431-.7278-.6508-2.9041-.4793-3.0729Z" fill="#e41628"/>
    <path d="M360.9709,78.3942c-1.0264.2356-1.5173-.6421-2.2389-1.2033-.9042-.7032-2.6026-1.9764-3.7393-2.0589-2.6799-.1946-.3093,3.025-.5499,3.2623-.2837-.0326-.7234.0868-.9668-.0598-.116-.0698-.8593-1.3147-.9881-1.5479-2.1391-3.8721-1.4135-5.9859,2.9599-3.3167,1.6026.9781,3.7383,2.7842,5.04,4.1408.0798.0832.5644.7115.4832.7836Z" fill="#e41527"/>
    <path d="M363.0266,82.2566h-1.3298v-1.8706c0-.6519-.8939-.56-1.3298-.5431v2.4136c-.2582-.0243-1.4507.1062-1.4507-.181v-2.2326c-.2269.0092-1.209-.0844-1.209.181v2.2326c-.3282-.0602-1.3141.1696-1.4341-.1977-.0735-.225-.0647-2.3078-.0233-2.6451.0572-.4658.3576-.4924.7924-.5365,1.3756-.1394,3.3399-.1598,4.7142.0009.3885.0454,1.2702.3069,1.2702.7836v2.5947Z" fill="#232321"/>
    <path d="M345.8595,78.8775h-3.2037c-.2955,0-.3623.3483-.3028.6029.8134.1398,2.7441-.054,3.3801.3077.6075.3455.2634,2.0783-.5962,2.4109-.7538.2916-4.2593.4873-4.2352-.7326.0096-.4866.5974-.1774.9027-.1693.3928.0105,2.4262.0655,2.5516-.1189.0926-.1361.0458-.3348.0532-.4899-.1227-.1089-2.7395-.0472-3.2646-.3022-.5649-.2744-.2899-1.9338.4393-2.3371.7031-.3889,4.4793-.7136,4.2756.8286Z" fill="#282826"/>
    <path d="M352.1182,79.0262c.2708.2719.5385,2.1126.9539,2.2489,1.0739.3525,1.043-1.8832,1.6649-2.2853.3498-.2262.869-.0727,1.2773-.1118.0273.135-.0198.2404-.0569.3644-.2676.8944-1.1136,3.2589-1.5445,4.0098-.3983.694-.81.6-1.5411.5727l.4827-1.447c-.3871.0072-1.1497-.0511-1.4473-.3052-.2531-.2161-1.3353-3.0761-1.2115-3.1946.3537.031,1.1738-.1016,1.4225.1482Z" fill="#252523"/>
    <path d="M347.673,80.0843c.7801.1497.7671-.767,1.2373-1.1262l1.5427-.08c.1433.1283-.9399,1.258-.9664,1.6365-.0408.5834.9256,1.1353.9665,1.7414l-1.4486-.0614c-.5785-.3935-.4722-1.3734-1.3318-1.1454l.001,1.2079-1.4513-.0006v-4.4652c.2582.0243,1.4507-.1062,1.4507.181v2.1119Z" fill="#252523"/>
    <path d="M369.3132,80.9291c.1616.674,1.5344.5052,2.1208.4887.2896-.0082,1.0455-.3354.8837.2761-.2529.956-3.5708.8878-4.1509.0779-.34-.4746-.3133-1.6929-.0476-2.2155.4784-.9411,2.6009-.905,3.4695-.5969.9422.3343,1.0594,1.9697.6865,1.9697h-2.9619ZM371.1266,80.205c.1066-.8319-1.92-.8319-1.8134,0h1.8134Z" fill="#282826"/>
    <path d="M367.4998,79.7222h-2.6597l-.0006.3616c.4252.037,2.4589.0615,2.6315.2713.3797.4615.0271,1.6178-.5734,1.8434-.7454.2801-3.5533.5282-3.3874-.7867h2.5388l.0006-.3616c-.5933-.0436-2.5313.1776-2.6575-.5469-.3065-1.7603,1.6696-1.8691,2.9442-1.7318.6507.0701,1.1713.188,1.1634.9507Z" fill="#282826"/>
    <path d="M377.2923,82.2566h-1.3298v-1.8706c0-.8593-1.8134-.5714-1.8134-.362v2.2326h-1.3298v-3.1981c0-.0674.2029-.186.302-.1812.8199.0834,1.6028-.1593,2.4178-.119.4359.0215,1.7533.1934,1.7533.783v2.7153Z" fill="#232321"/>
  </g>
  <g>
    <path d="M395.2217,76.8245l17.0193.1045c3.9775.4399,4.1882,6.1994.3053,7.013-3.7047.059-7.4228-.0266-11.1173-.0585-2.0323-.0175-4.3685.1592-6.3539.0048-4.0797-.3172-4.2859-6.7048.1466-7.0638ZM395.0329,77.1376c-3.0763.3156-3.8398,4.6358-1.1606,6.0698,1.1607.6213,3.7673.3436,5.1679.3628,3.3873.0463,6.7887.0357,10.1841.0623,1.4414.0113,3.2084.3809,4.4747-.4839,2.0757-1.4175,1.7517-4.8274-.6311-5.728-.8919-.3371-2.5272-.1538-3.5349-.1734-4.8221-.0942-9.6693-.0852-14.5001-.1095Z" fill="#c53f42"/>
    <path d="M409.3785,84.9512c.0548.0105.0989.0775.1257.1253v.4386c-.0047.0075-.1182.1206-.1257.1253h-.3143c-.0197-.011-.0464-.0426-.0629-.0627l-.0629-.4386c.0188-.0499.0163-.0803.0629-.1253.1146-.0253.2612-.0848.3772-.0627Z" fill="#faf4f4"/>
    <path d="M406.2983,84.9512c.0085.0025.1209.1179.1257.1253-.0186.1089.0267.2834,0,.3759-.0025.0085-.122.0657-.1257.1253-.1012.0096-.2166-.014-.3143,0v-.6266c.0684-.0071.2644-.0147.3143,0Z" fill="#fcfafa"/>
    <path d="M397.5604,84.8885c-.1093.4117.2864.1776.3146.2826.0432.1604-.1901.0781-.2785.0922-.0787.0126-.019.2392-.0362.3144-.0295.0042-.0561.0326-.0629.0627-.1012-.0328-.1017-.7812,0-.8145.0065.0294.0343.0599.0629.0627Z" fill="#e2a1a3"/>
    <path d="M396.7432,85.1392h-.0629c-.1516.0778.0481.4171-.188.5012.002-.2742-.0322-.5514.063-.814.0736.0054.1822.2713.1878.3128Z" fill="#de9192"/>
    <path d="M410.5097,85.7027c-.0195.0255-.1742.0193-.1256-.0925l.0316-.6578c.1349.0656.1172.7198.094.7503Z" fill="#e4a7a8"/>
    <rect x="394.6068" y="85.1387" width=".7525" height=".1261" transform="translate(309.6643 480.1596) rotate(-89.983)" fill="#e4a7a8"/>
    <rect x="403.0303" y="85.2014" width=".7525" height=".1261" transform="translate(318.0226 488.6458) rotate(-89.983)" fill="#e4a7a8"/>
    <rect x="403.8476" y="85.2014" width=".7525" height=".1261" transform="translate(318.8396 489.463) rotate(-89.983)" fill="#df9698"/>
    <path d="M410.7615,85.0139c.0087.0615-.015.2371-.0004.251.0299.0285.3153-.0458.3153.031,0,.0764-.2878.0031-.3153.031-.011.0112-.0109.3027,0,.3139.0376.0387.3675-.0791.3772.0617-.0847-.0136-.4191.0218-.44.001-.0267-.0266-.0136-.7108.0003-.7522.0303.0066.0587.0332.0629.0627Z" fill="#cc5759"/>
    <path d="M403.0294,84.9512c-.0046.156.0069.3139,0,.4703-.0037.0843.0524.261-.0936.2193-.0745-.0213-.0118-.5737-.0321-.6895.04.0039.0854.0022.1257,0Z" fill="#e2a1a3"/>
    <path d="M408.247,84.9512v.6892h-.0629c-.1027-.1028-.1069-.5725,0-.6892h.0629Z" fill="#e4a7a8"/>
    <path d="M392.7829,84.8885c-.0054.0509-.0092.2421-.0003.251.0295.0295.3781-.0467.3782.031,0,.0774-.35.0019-.3781.031-.0109.0113-.0057.2545.0003.3136.0021.0212-.005.0601,0,.0627-.1071-.1799-.1047-.5847,0-.7519-.005.0026.0022.0415,0,.0627Z" fill="#d06365"/>
    <path d="M395.5488,84.8259v.0627c-.3502-.0393-.2354.0378-.2514.3133-.0024.0415.0018.0837,0,.1253-.0032.074.0485.2628-.0622.2503.019-.1184-.0281-.7257-.001-.7519.0113-.0109.272-.0099.3147.0003Z" fill="#d06365"/>
    <path d="M397.2458,84.8262c.0181.0237.0044.497.0003.5956-.0031.0761.0475.233-.0622.2183.0383-.2572-.029-.4842-.0592-.7257-.017-.1361.1035-.1111.1211-.0881Z" fill="#cf6062"/>
    <path d="M398.6285,85.6404c-.221-.1397.0186-.5766-.0616-.8142.1097-.0146.0591.1422.0622.2183.0081.198-.0051.3984-.0006.5959Z" fill="#d16567"/>
    <path d="M402.9037,84.9512c-.0509-.0049-.1079.008-.1562.0003-.0607-.0097-.0547-.1266,0-.1267.27-.0004.8558.0956.2818.1264-.0404.0022-.0857.0039-.1257,0Z" fill="#de9192"/>
    <path d="M395.9889,85.0765c-.029.1906.0224.2714.1886.1253h.0629c.0118.0349.1168.1234.0622.1879-.0074.0087-.1372-.0671-.2194-.0671-.2321.0002-.3618.1966-.0943-.2462Z" fill="#d6787a"/>
    <path d="M409.8186,85.1392c-.0106.1863.0083.377-.0006.5636-.1097.0146-.0591-.1423-.0622-.2183-.0081-.1979.0054-.3981.0003-.5956.1947-.0328.0965.0536.1254.125-.0604.0167-.0599.0723-.0629.1253Z" fill="#cf6062"/>
    <path d="M412.1445,84.8885c-.0067.0392.01.0929,0,.1253-.0503.1634-.059.6898-.0943.6898-.055,0-.0314-.5893-.0314-.6898v-.1253c.0399-.0017.087-.005.1257,0Z" fill="#d87f81"/>
    <path d="M398.1255,85.6401c-.1097.0146-.0591-.1422-.0622-.2183-.0081-.198.0051-.3984.0006-.5959.221.1397-.0186.5766.0616.8142Z" fill="#d16567"/>
    <path d="M405.5439,85.0765c.019.0673.103.142.0629.2506-.0704-.0158-.1734.0109-.2514,0,.0094-.0359-.009-.0886,0-.1253.0532-.0741.0803-.1465.1886-.1253Z" fill="#f9eeee"/>
    <path d="M400.5778,85.5778c.118-.125-.106-.2975-.1886-.3753.2651-.0146.4469.2173.1886.3753Z" fill="#da8587"/>
    <path d="M410.6986,84.9512c.0753-.2231.9563.0833.0629.0627-.0042-.0295-.0326-.0561-.0629-.0627Z" fill="#e7afb0"/>
    <path d="M406.7383,85.5778c.0535-.0106.3625-.0119.3769.0003.1696.1448-.3949.1952-.4397.0623.0387.0013.0585-.0618.0629-.0627Z" fill="#e2a1a3"/>
    <path d="M396.1146,84.9512l.0629.2506c-.1662.1461-.2176.0652-.1886-.1253.0178-.0294-.0487-.1855.1257-.1253Z" fill="#f8eaea"/>
    <path d="M399.9492,84.9512c-.0201-.009-.4199-.009-.44,0,.2153-.1904.2246-.191.44,0Z" fill="#e2a1a3"/>
    <path d="M403.7209,85.5778c.0031.0224-.0065.0492,0,.0627-.1043-.0652-.0626-.2377-.0639-.3436-.0012-.0925-.0511-.3863.0633-.4079.0224.2185-.0286.4778.0006.6889Z" fill="#d47173"/>
    <path d="M401.2064,84.8885c.2508-.2445.7379.1311,0,.0627v-.0627Z" fill="#e7afb0"/>
    <path d="M399.0691,84.8889c.0296.9977-.0925.9977-.0629,0h.0629Z" fill="#d47173"/>
    <rect x="412.1146" y="85.2955" width=".7512" height=".0633" transform="translate(327.057 497.7954) rotate(-89.9853)" fill="#cb5053"/>
    <path d="M406.7383,84.9512c-.0088.0786.0015.1688,0,.2506-.0008.0417,0,.0836,0,.1253v.2506c-.0044.0009-.0241.064-.0629.0627-.0373-.1105-.021-.6461.0629-.7519-.0052.0027.0024.0414,0,.0627Z" fill="#cb5053"/>
    <path d="M404.5381,84.9512c-.0182.1658-.0172.4599,0,.6266.0022.0212-.005.0601,0,.0627-.1071-.1799-.1047-.5847,0-.7519-.005.0025.0023.0415,0,.0627Z" fill="#cb5053"/>
    <path d="M413.716,85.1392c.014.0215-.0152.1491.0629.188.0057.0192-.0053.0432,0,.0627-.1582-.0078-.2907.0628-.2514-.1253.0302-.0404.081-.1173.1257-.1253.017-.0031.0612-.0026.0629,0Z" fill="#f8eaea"/>
    <path d="M405.984,85.5778c-.0044.0006-.0237.0641-.0629.0627-.0143-.042-.0161-.6587,0-.6892.0027-.005.0416.0022.0629,0v.6266Z" fill="#d87f81"/>
    <path d="M400.2635,85.0139c.0962-.2063.1368-.2936.3769-.0937-.0703.0669-.3218.0082-.3769.0937Z" fill="#e4a7a8"/>
    <path d="M393.4115,85.3898h-.0629c-.0831-.151-.105-.2825,0-.4386h.0629v.4386Z" fill="#d87f81"/>
    <rect x="402.245" y="85.1702" width=".6259" height=".0633" transform="translate(317.2273 487.7325) rotate(-89.9817)" fill="#cc5759"/>
    <rect x="393.8843" y="85.1075" width=".6259" height=".0633" transform="translate(308.9319 479.3092) rotate(-89.9817)" fill="#d06365"/>
    <rect x="394.3872" y="85.1075" width=".6259" height=".0633" transform="translate(309.4347 479.8121) rotate(-89.9817)" fill="#d26a6d"/>
    <path d="M411.3273,85.0139c.0509-.1754.2774-.1678.3769-.031-.0824.0814-.2874-.0003-.3769.031Z" fill="#e7afb0"/>
    <path d="M406.7383,85.2018c.4446-.0539.4544.1777,0,.1253,0-.0417-.0008-.0836,0-.1253Z" fill="#e7afb0"/>
    <path d="M414.4075,85.6404c-.125.0897-.175.2453-.3769.031.0586-.0829.3437.0038.3769-.031Z" fill="#e7afb0"/>
    <rect x="401.7421" y="85.1702" width=".6259" height=".0633" transform="translate(316.7245 487.2296) rotate(-89.9817)" fill="#d87f81"/>
    <path d="M413.276,85.0132l-.3768-.0304c.1037-.1383.3153-.1417.3768.0304Z" fill="#de9192"/>
    <path d="M403.7209,85.5778c.6844-.0414.1103.2916,0,.0627-.0065-.0134.0031-.0402,0-.0627Z" fill="#df9698"/>
    <path d="M406.2983,85.5778v.0627c-.0908.0505-.3322.1322-.3772,0,.0391.0014.0585-.062.0629-.0627.0977-.014.2132.0096.3143,0Z" fill="#e7afb0"/>
    <path d="M414.0303,85.0765c.023-.1557.3822-.257.4397-.0633l-.3769.0633h-.0629Z" fill="#dc8c8d"/>
    <rect x="399.0056" y="84.5743" width=".0633" height=".5661" transform="translate(314.0311 483.8628) rotate(-89.9786)" fill="#da8587"/>
    <path d="M393.9144,85.3898c-.0703.2255-.0731.3274-.2514.2506l-.1257-.0627c-.0232-.0156-.0417-.0432-.0629-.0627.1429-.0014.4019.0546.44-.1253Z" fill="#da8587"/>
    <path d="M407.605,85.689c-.0521.0298-.4383.0866-.3633-.1112.2758.1129.399.0389.4077-.2504.1659.0551.0071.3321-.0445.3616Z" fill="#da8587"/>
    <path d="M413.5274,85.2645c-.0393.1881.0932.1175.2514.1253.0012.0043.0782.009.0629.062l-.4094.062c-.0268-.0727.0519-.1915.0951-.2492Z" fill="#d26a6d"/>
    <path d="M412.0187,84.8885v.1253c-.3506.0151-.41-.1081,0-.1253Z" fill="#e7afb0"/>
    <path d="M405.041,85.3271h-.0629c-.0142-.1562.0617-.2954-.1257-.3759v-.0627c.2167.0535.2352.2656.1886.4386Z" fill="#dc8c8d"/>
    <path d="M409.5042,85.5151v-.4386c.0968.1725.1083.2649,0,.4386Z" fill="#cf6062"/>
    <path d="M414.4075,85.6404c.0254-.0267-.0455-.2216.0311-.2503.2561.2869.0218.2124-.0311.2503Z" fill="#de9192"/>
    <path d="M395.6117,85.2018c-.081.0921-.2034.1013-.3143.1253.0018-.0416-.0024-.0838,0-.1253.0669-.0117.2974.0171.3143,0Z" fill="#dc8c8d"/>
    <path d="M395.6117,85.2018c.0286-.0288-.0169-.2544-.0629-.3133v-.0627c.1624.0389.1714.2526.0629.3759Z" fill="#d6787a"/>
    <path d="M396.9308,85.5775c-.1617.1294-.1587-.1999.0632-.2503.005.0465-.0532.2422-.0632.2503Z" fill="#d87f81"/>
    <path d="M408.4985,85.5778v.0627c-.1168.0442-.1709.1435-.3143,0h.0629c.0806-.0269.1726-.0323.2514-.0627Z" fill="#de9192"/>
    <path d="M412.1445,84.8885c.3228.0414.3545.1596,0,.1253.01-.0324-.0067-.0861,0-.1253Z" fill="#e7afb0"/>
    <path d="M401.2064,85.5778c.8369-.0253-.0005.1831-.0629,0h.0629Z" fill="#d16567"/>
    <path d="M397.4976,84.8259c.2967-.0973.6458.1181.0629.0627-.0285-.0027-.0563-.0333-.0629-.0627Z" fill="#d26a6d"/>
    <path d="M413.1503,85.6404v.0627c-.0726.0096-.1103.0755-.2514,0v-.0627c.083-.0052.1689.0077.2514,0Z" fill="#dc8c8d"/>
    <path d="M401.2064,85.2018c.4289-.0294.4289.0921,0,.0627h-.0629c-.0005-.0206-.0016-.0422,0-.0627h.0629Z" fill="#cc5759"/>
    <path d="M406.2983,84.9512c-.0499-.0147-.2459-.0071-.3143,0-.0213.0022-.0602-.005-.0629,0,.0595-.1007.3138-.1025.3772,0Z" fill="#d26a6d"/>
    <path d="M405.3553,85.2018c.0262-.1068.0616-.4341.1883-.3133.0173.0165-.0132.1404.0003.188-.1083-.0212-.1353.0512-.1886.1253Z" fill="#dc8c8d"/>
    <path d="M393.9144,85.3898c.0106-.0498.0121-.3418,0-.3759.0291.0747.077.0904.0702.219-.005.0954-.06.124-.0702.1569Z" fill="#cb5053"/>
    <path d="M407.3155,85.1886c.0348.0457.2284.0038.24.1379-.1711.036-.3898-.1301-.2829-.3133.0687.0134.0043.1248.0429.1753Z" fill="#d26a6d"/>
    <path d="M400.5778,85.5778c-.2084.1275-.4643.0399-.3769.0006.0657-.0295.3523.0254.3769-.0006Z" fill="#d16567"/>
    <path d="M397.5604,85.5778c.5521-.0791.2731.1714-.0629.0627.0068-.0301.0333-.0584.0629-.0627Z" fill="#d87f81"/>
    <path d="M399.5092,85.5151c-.1245-.1409-.1786-.2102-.1257-.4386h.0629c-.0274.1254-.0022.3215.0629.4386Z" fill="#cc5759"/>
    <path d="M400.0121,85.4524c-.0163-.1143.0234-.2726,0-.3759h.0629c.0354.1498-.0015.2533-.0629.3759Z" fill="#d26a6d"/>
    <path d="M394.543,85.5151v.0627c-.0159.0043-.04.0587-.0943.0587s-.0784-.0544-.0943-.0587v-.0627c.0578-.0051.1307-.0051.1886,0Z" fill="#e7afb0"/>
    <path d="M405.3553,85.3271c-.0051.0197.0057.0437,0,.0627-.0193.0637-.1084.1925-.1575.2503-.083-.1091.0813-.3323.1575-.4383-.009.0367.0094.0894,0,.1253Z" fill="#d6787a"/>
    <path d="M406.424,85.4524c.0267-.0925-.0186-.267,0-.3759.1246.1937.0648.2035,0,.3759Z" fill="#cc5759"/>
    <path d="M406.7383,84.8885c.2188-.1134.7144.1204,0,.0627.0024-.0212-.0052-.06,0-.0627Z" fill="#d06365"/>
    <path d="M392.7829,84.8259c.2193-.1135.7142.1204,0,.0627.0022-.0212-.005-.0601,0-.0627Z" fill="#da8587"/>
    <path d="M392.7829,85.5151c.7146-.0577.2186.176,0,.0627-.005-.0026.0021-.0415,0-.0627Z" fill="#da8587"/>
    <path d="M411.5787,85.7031v-.0627l.0629-.2506c.2209.0619.0908.2765-.0629.3133Z" fill="#dc8c8d"/>
    <path d="M412.7731,85.5151c-.0165-.0423-.0656-.0637-.0702-.1572-.0065-.1305.0478-.1507.0702-.2188-.0077.0819-.0173.3154,0,.3759Z" fill="#cb5053"/>
    <path d="M393.4744,84.8885c.2394-.0963.3462-.1153.44.1253-.0377-.1068-.3271-.1341-.44-.1253Z" fill="#d6787a"/>
    <path d="M404.5381,85.5778c.5872-.0526.201.1663,0,.0627-.005-.0026.0022-.0415,0-.0627Z" fill="#df9698"/>
    <path d="M399.8863,85.5778c-.1805.1008-.1463.0806-.3143,0h.3143Z" fill="#d26a6d"/>
    <path d="M401.2064,84.9512v.2506h-.0629c.0097-.1248-.0427-.2103.0629-.3133v.0627Z" fill="#d47173"/>
    <path d="M404.8524,84.8885v.0627h-.3143c.0023-.0212-.005-.0601,0-.0627.0157-.0078.2768-.0093.3143,0Z" fill="#d26a6d"/>
    <path d="M402.4634,85.5784c.1652.0751-.4789.0751-.3137,0,.0208-.0094.2929-.0094.3137,0Z" fill="#d87f81"/>
    <path d="M413.6532,85.1392c-.0766-.0985-.1132-.2231.0308-.1884.0701.0169.0151.1321.0321.1884-.0017-.0026-.0458-.0031-.0629,0Z" fill="#d47173"/>
    <path d="M413.1503,85.6404c.1546-.0144.2871-.1232.2518.0307-.0151.0657-.1809.0226-.2518.032v-.0627Z" fill="#d87f81"/>
    <path d="M409.3785,85.6404c-.163.1032-.1569.0881-.3143,0h.3143Z" fill="#d87f81"/>
    <path d="M411.5787,85.6404v.0627c-.3484.0834-.4881-.1173,0-.0627Z" fill="#d16567"/>
    <path d="M409.8814,85.0139c.0605.1494.1448.254-.0629.1253.003-.053.0025-.1086.0629-.1253Z" fill="#da8587"/>
    <path d="M408.7499,85.2018h-.0629c-.0016-.0098-.0563-.1805-.0629-.188.0856.0761.0989.0395.1257.188Z" fill="#d87f81"/>
    <path d="M409.0014,85.5778c-.1674-.2043-.1498-.2079-.0629-.4386l.0629.4386Z" fill="#d47173"/>
    <path d="M401.2064,85.5778h-.0629c-.0191-.056.0022-.2286,0-.3133h.0629v.3133Z" fill="#d87f81"/>
    <path d="M408.7499,85.3898c-.0393.2083-.0824.1866-.2514.2506v-.0627c.0842-.0324.1611-.0166.1886-.188h.0629Z" fill="#d87f81"/>
    <path d="M409.3785,84.9512c-.116-.0221-.2625.0374-.3772.0627.1117-.1081.2512-.201.3772-.0627Z" fill="#dc8c8d"/>
    <path d="M407.6181,84.8892c.1597.0722-.4105.0722-.2508,0,.0202-.0091.2307-.0091.2508,0Z" fill="#d16567"/>
    <path d="M412.8988,85.6404v.0627c-.1273-.068-.0865-.0873-.1257-.188.0024.0085.122.0657.1257.1253Z" fill="#d87f81"/>
    <path d="M405.6068,85.3271v.0627c-.0733.0143-.1722-.0099-.2514,0,.0057-.0189-.0051-.043,0-.0627.078.0109.1811-.0158.2514,0Z" fill="#d06365"/>
    <path d="M406.2983,85.6404v-.0627c.0037-.0596.1233-.1168.1257-.1253-.0384.1022-.0008.1186-.1257.188Z" fill="#de9192"/>
    <path d="M408.3727,84.8885v.0627c-.039-.0065-.0851.0044-.1257,0h-.0629c.0661-.0721.0949-.0694.1886-.0627Z" fill="#d26a6d"/>
    <path d="M413.7789,85.3271c-.0781-.0388-.0489-.1665-.0629-.188.0185.0613.0434.1219.0629.188Z" fill="#d6787a"/>
    <path d="M408.7499,85.3898h-.0629c.0074-.0464.0075-.1417,0-.188h.0629c.0077.0427.008.1458,0,.188Z" fill="#cf6062"/>
    <path d="M399.4463,85.0765h-.0629c.0174-.0753.0838-.0882.1257-.1253-.0064.0029-.0614.1185-.0629.1253Z" fill="#d6787a"/>
    <path d="M400.0749,85.0765h-.0629c-.0015-.0068-.0564-.1224-.0629-.1253.042.0372.1079.0497.1257.1253Z" fill="#d87f81"/>
    <path d="M411.3273,85.0139c-.0145.0501.0174.1556-.0006.1876-.0382.0679-.1412-.138.0006-.1876Z" fill="#cb5053"/>
    <path d="M408.6242,85.0139c-.0085-.0097-.2056-.055-.2514-.0627v-.0627c.1298.0094.1634.047.2514.1253Z" fill="#df9698"/>
    <path d="M393.4744,84.8885c-.0044.0003-.0288.0595-.0629.0627h-.0629c.0393-.0584.081-.0447.1257-.0627Z" fill="#da8587"/>
    <path d="M393.663,85.6404c-.0523-.0225-.0723-.0266-.1257-.0627l.1257.0627Z" fill="#fcfafa"/>
    <path d="M396.8054,85.3895c-.0218.0425-.1068-.0367-.0616-.1247.0218-.0425.1068.0367.0616.1247Z" fill="#d47173"/>
    <path d="M410.0695,85.5147c-.0328.0714-.1519-.1904-.1246-.2498.0328-.0714.1519.1904.1246.2498Z" fill="#d26a6d"/>
    <path d="M400.2635,85.0139c-.0051.0078-.0112.2301-.0622.125-.0531-.1095.0588-.1176.0622-.125Z" fill="#de9192"/>
    <path d="M405.7325,85.5778c-.0072-.0131-.1123-.0242-.0622-.125.0477-.096.0559.0971.0622.125Z" fill="#d87f81"/>
    <path d="M414.1561,85.2645c-.0828-.0469-.1428-.0721-.1257-.188h.0629c.0143.0612.0247.1376.0629.188Z" fill="#d47173"/>
    <path d="M411.5155,85.2651c.0426.0217-.0368.1064-.1251.0614-.0426-.0217.0368-.1064.1251-.0614Z" fill="#da8587"/>
    <path d="M394.543,85.5151c.2341.0206.14.0243,0,.0627v-.0627Z" fill="#dc8c8d"/>
    <path d="M413.9046,85.6404c-.0304.0325-.094-.0595-.0622-.125.0281-.0579.1078.0763.0622.125Z" fill="#d26a6d"/>
    <path d="M396.2403,85.2018h-.0629l-.0629-.2506c.104.0359.0982.169.1257.2506Z" fill="#d87f81"/>
    <path d="M412.7731,85.1392c.007-.0212.0077-.2169.0623-.1248.0289.0487-.0614.1147-.0623.1248Z" fill="#de9192"/>
    <path d="M414.1561,85.2645c.0248.014.1027-.0138.1253.0006.0328.021-.0206.1375-.1253-.0006Z" fill="#de9192"/>
    <path d="M394.3545,85.5151v.0627c-.14-.0383-.2341-.042,0-.0627Z" fill="#da8587"/>
    <path d="M405.7325,85.5778c.0072.0131.1123.0242.0622.125-.0477.096-.0559-.0971-.0622-.125Z" fill="#e7afb0"/>
    <path d="M410.1322,85.7027c-.0334.0653-.1318-.1011.0327-.1864.0131.0321-.0259.173-.0327.1864Z" fill="#df9698"/>
    <path d="M405.041,85.3271c-.0387.1435-.0418.2311-.0629,0h.0629Z" fill="#d87f81"/>
    <path d="M405.6068,85.3898v-.0627c.0788.0177.0832.0464,0,.0627Z" fill="#d87f81"/>
    <path d="M395.8631,85.5151h-.0629c0-.0809.0629-.0809.0629,0Z" fill="#d6787a"/>
    <path d="M397.0261,85.2018c.0408.0209.0408.0418,0,.0627v-.0627Z" fill="#d6787a"/>
    <path d="M393.4115,85.4524c-.0165-.022-.0501-.0394-.0629-.0627h.0629v.0627Z" fill="#d6787a"/>
    <path d="M396.6804,85.1392h.0629c.0036.0267.0039.0408-.0268.0439l-.0361-.0439Z" fill="#d47173"/>
    <path d="M411.6416,85.3898c-.0296.0295-.1001-.058-.0314-.0627.0218-.0015.0455.0486.0314.0627Z" fill="#da8587"/>
    <path d="M395.8003,85.5151h.0629c0,.0809-.0629.0809-.0629,0Z" fill="#e4a7a8"/>
    <path d="M413.9046,85.6404c.0296-.0295.1001.058.0314.0627-.0218.0015-.0455-.0486-.0314-.0627Z" fill="#df9698"/>
    <path d="M395.0329,77.1376c4.8309.0243,9.6781.0154,14.5001.1095,1.0077.0197,2.643-.1637,3.5349.1734,2.3827.9006,2.7068,4.3105.6311,5.728-1.2662.8647-3.0332.4952-4.4747.4839-3.3954-.0266-6.7968-.016-10.1841-.0623-1.4006-.0191-4.0072.2585-5.1679-.3628-2.6792-1.4341-1.9158-5.7542,1.1606-6.0698ZM395.3917,78.1217c-.2992-.0923-1.0579.0684-1.4144,0v4.4486c0,.0313.6286.0313.6286,0v-2.6315c.1027.0244.1378.1444.1804.2274.3524.6863.5951,1.443.9371,2.1361l.17.1446,1.2269-2.5081v2.6315h1.4458l.0629-4.3859h-1.4773c-.0945,0-.6457,1.4782-.7727,1.6734-.0543.0834-.0749.1685-.2011.1436-.0488-.2509-.6667-1.8428-.7863-1.8797ZM401.4893,82.5703c.2901.0927,1.064-.0687,1.4144,0l-1.3917-4.3772-1.1567-.013-1.5374,4.3898c.147-.0305.5935.0485.6825-.0083.0662-.0423.2261-.8281.316-.9566.038-.0543,1.2707-.0741,1.321-.0308.0517.0447.2119.9513.352.9961ZM404.7267,78.247h-1.383v4.1666c0,.0192-.0863.0892-.0629.1566h2.7659c.0251,0,.0251-.5012,0-.5012h-1.3201v-3.822ZM409.3157,78.247h-3.2688c-.0283,0-.0283.5639,0,.5639h.8801l-.0599,3.6716c-.0144.0522.0645.1504.0914.1504h1.5087c.0067,0,.0943-.0873.0943-.094v-3.728c.1193-.0196.728.0269.7547.0003.0232-.0231-.0171-.4648-.0003-.5642ZM411.8616,82.6329c.3019.0965,1.1126-.0716,1.4773,0l-1.4546-4.3772-1.1567-.013-1.5374,4.3898c.147-.0305.5935.0485.6825-.0083.0662-.0423.2261-.8281.316-.9566.038-.0543,1.2707-.0741,1.321-.0308.0517.0447.2119.9513.352.9961ZM414.1059,79.2898c0-.3998-.3252-.7239-.7263-.7239s-.7263.3241-.7263.7239.3252.7239.7263.7239.7263-.3241.7263-.7239Z" fill="#fcfafa"/>
    <path d="M395.5488,84.8885c.046.0589.0915.2845.0629.3133-.017.0171-.2474-.0117-.3143,0,.0161-.2754-.0988-.3526.2514-.3133Z" fill="#fcfafa"/>
    <path d="M395.3917,78.1217c.1196.0369.7374,1.6287.7863,1.8797.1263.0249.1468-.0602.2011-.1436.127-.1952.6782-1.6734.7727-1.6734h1.4773l-.0629,4.3859h-1.4458v-2.6315l-1.2269,2.5081-.17-.1446c-.3421-.6931-.5847-1.4498-.9371-2.1361-.0427-.0831-.0777-.203-.1804-.2274v2.6315c0,.0313-.6286.0313-.6286,0v-4.4486c.3565.0684,1.1152-.0923,1.4144,0Z" fill="#c3373a"/>
    <path d="M411.8616,82.6329c-.14-.0448-.3003-.9514-.352-.9961-.0502-.0434-1.2829-.0236-1.321.0308-.0899.1285-.2498.9143-.316.9566-.089.0568-.5354-.0222-.6825.0083l1.5374-4.3898,1.1567.013,1.4546,4.3772c-.3646-.0716-1.1754.0965-1.4773,0ZM410.3843,81.1292c.0342.0323.8033-.0239.9429,0-.0542-.1549-.3341-1.4428-.4092-1.4417-.1155.0017-.1208.0713-.1604.1535-.0606.1259-.4222,1.2421-.3734,1.2882Z" fill="#c3383b"/>
    <path d="M401.4893,82.5703c-.14-.0448-.3003-.9514-.352-.9961-.0502-.0434-1.2829-.0236-1.321.0308-.0899.1285-.2498.9143-.316.9566-.089.0568-.5354-.0222-.6825.0083l1.5374-4.3898,1.1567.013,1.3917,4.3772c-.3504-.0687-1.1243.0927-1.4144,0ZM400.0121,81.0665c.0332.0334.8029-.0247.9429,0-.0542-.1549-.3341-1.4428-.4092-1.4417-.1155.0017-.1208.0713-.1604.1535-.0674.1399-.4209,1.2405-.3734,1.2882Z" fill="#c3373a"/>
    <path d="M409.3157,78.247c-.0167.0995.0235.5412.0003.5642-.0267.0266-.6353-.0199-.7547-.0003v3.728c0,.0066-.0876.094-.0943.094h-1.5087c-.0269,0-.1057-.0982-.0914-.1504l.0599-3.6716h-.8801c-.0283,0-.0283-.5639,0-.5639h3.2688Z" fill="#c3383b"/>
    <path d="M404.7267,78.247v3.822h1.3201c.0251,0,.0251.5012,0,.5012h-2.7659c-.0234-.0675.0629-.1375.0629-.1566v-4.1666h1.383Z" fill="#c33639"/>
    <path d="M414.1059,79.2898c0,.3998-.3252.7239-.7263.7239s-.7263-.3241-.7263-.7239.3252-.7239.7263-.7239.7263.3241.7263.7239ZM413.2594,78.6962c-.6475.1315-.6019,1.3659.286,1.1668.669-.1499.4795-1.3223-.286-1.1668Z" fill="#cb5053"/>
    <path d="M400.0121,81.0665c-.0475-.0477.306-1.1484.3734-1.2882.0396-.0822.0448-.1518.1604-.1535.0752-.0011.3551,1.2868.4092,1.4417-.14-.0247-.9097.0334-.9429,0Z" fill="#faf4f4"/>
    <path d="M413.6529,79.6877c-.1103.1299-.2304-.2979-.2826-.3144-.3186-.1006.0017.3497-.2826.3145.0191-.1181-.0273-.7252-.0006-.7518.0192-.0191.4797-.0232.5392.0584.1189.1632-.0967.3039-.089.4018.0055.0698.1666.2314.1156.2915ZM413.2134,79.2492c.1121.1117.5008-.152.2121-.2428-.267-.084-.2698.1853-.2121.2428Z" fill="#c94a4d"/>
    <path d="M413.2134,79.2492c-.0577-.0575-.0548-.3267.2121-.2428.2887.0908-.1001.3544-.2121.2428Z" fill="#f8eaea"/>
  </g>
  <g>
    <path d="M297.5281,80.6669l.2614.0526c1.1701.3329,1.4203,1.9644.3537,2.5976-.9022.5355-2.0697-.0552-2.1309-1.1l-.0677.2952c-.4001,1.3886-2.4621,1.3114-2.7359-.1226-.3309-1.7328,2.0351-2.4086,2.6931-.8065l.1105.4247c.0195-.6796.6081-1.3027,1.2939-1.3288.0024-.0178-.0335-.0188-.0465-.021-.5596-.0936-1.0048-.3842-1.1859-.9444-.4234-1.3098,1.0477-2.3893,2.1605-1.6035,1.0693.7551.5907,2.4574-.7062,2.5568Z"/>
    <path d="M315.1486,82.1062h-1.2076l.0005-2.6887c-.0241-.438-.1865-.8017-.685-.7813-.5289.0217-.7227.3793-.7331.8674l.0005,2.6025h-1.146l.0005-2.8363c-.0047-.5558-.4554-.7652-.952-.6296-.2712.0741-.4533.3679-.4533.6424v2.8235h-1.1829v-4.3183h1.109v.6151c.0609.0169.0679-.0569.0983-.1048.3246-.5121.822-.7018,1.4219-.6318.4775.0557.7478.2943,1.012.6749.2275-.3142.5059-.5848.9031-.6605.8449-.1609,1.7522.3366,1.8123,1.2467l.0016,3.1787Z"/>
    <path d="M323.3552,77.6526h1.072v4.2751c-.08,1.3789-1.2597,1.6811-2.4465,1.6184-.729-.0385-1.6725-.3921-1.7061-1.2431h1.263c.0471.0945.0721.1909.1539.2646.2369.2134.9109.2024,1.187.0653.496-.2462.394-.8811.4026-1.3387l-.0429.0125c-.4496.8388-1.7902.7295-2.4217.1784-.853-.7445-.8542-2.5565-.0924-3.3652.6213-.6596,1.8463-.7536,2.4458-.0179.0263.0322.1365.2017.148.2091.0201.0129.0244.0006.0372-.0126v-.6459ZM322.1574,78.4805c-1.0003.1023-1.0775,2.0162-.2437,2.3521.5151.2075,1.0862-.0333,1.257-.5653.2424-.7548-.0252-1.8879-1.0134-1.7869Z"/>
    <path d="M319.7694,80.2731h-3.0436c.0287.3667.1286.7368.4723.9248.4046.2213,1.1631.1748,1.3267-.3342h1.146c-.1212.5107-.4776.9482-.9528,1.1709-.6887.3227-1.7537.271-2.3781-.1767-1.0389-.7449-1.0512-2.8456-.1195-3.6826.6678-.6,1.9224-.6412,2.6682-.1662.7503.478.9172,1.4348.8808,2.264ZM318.5249,79.5227c-.0149-.3519-.2084-.7144-.5461-.8511-.2134-.0864-.4959-.0853-.7105-.0037-.3572.1357-.5051.4983-.5424.8548h1.799Z"/>
    <path d="M308.4947,79.129h-1.1829c-.0258-.2601-.1654-.4679-.4217-.5448-.2588-.0776-.9104-.0832-1.0469.2042-.1741.3666.2428.4845.5095.5537.8931.2317,2.3253.2721,2.2404,1.5522-.0893,1.3465-1.7302,1.5293-2.7725,1.2921-.732-.1666-1.2832-.6242-1.2937-1.4211h1.2199c-.0206.2629.1371.4533.3756.5416.338.1251,1.1524.1581,1.3007-.2643.1255-.3576-.3541-.4585-.6041-.5173-.8903-.2093-2.2789-.2887-2.118-1.5731.1575-1.2579,1.646-1.426,2.6503-1.1729.6838.1723,1.0987.6367,1.1434,1.3497Z"/>
    <circle cx="300.2666" cy="82.1061" r="1.414"/>
    <circle cx="300.2648" cy="79.2603" r="1.4124"/>
    <circle cx="303.116" cy="79.262" r="1.4112"/>
  </g>
</svg>